<svg width="580" height="580" viewBox="0 0 580 580" fill="none" xmlns="http://www.w3.org/2000/svg">
<path d="M290 0C450.163 0 580 129.837 580 290C580 450.163 450.163 580 290 580C129.837 580 0 450.163 0 290C0 129.837 129.837 0 290 0ZM366.162 15.6028C365.57 15.4224 360.933 18.0993 358.841 19.6875C351.475 25.2699 348.428 38.1139 347.746 41.6086C346.836 45.6932 346.836 49.2331 346.381 52.8638C346.29 53.6354 345.927 56.6766 344.835 59.8989C339.469 75.5114 328.783 96.797 326.236 111.229C325.645 114.588 324.69 119.762 322.553 126.297C317.778 140.82 312.685 149.716 307.546 160.155C307.456 159.746 307.364 159.338 307.137 158.975C306.273 157.522 304.727 156.569 303.408 155.48C301.953 154.255 301.407 151.895 301.271 150.715C301.225 150.216 300.68 149.535 300.316 149.217C299.68 148.627 298.815 149.307 296.905 149.988C297.815 147.901 298.042 146.72 297.406 146.085C296.269 144.951 295.723 145.359 295.268 145.177C293.495 144.542 292.54 144.043 290.948 142.726C290.494 142.363 290.994 141.002 290.948 139.731C290.857 138.46 290.584 136.963 289.493 136.328C288.765 135.919 287.901 135.964 287.083 135.964L286.401 136.1C285.764 136.146 285.173 136.282 284.536 136.373C281.58 136.918 278.306 136.827 275.805 135.148C273.35 133.514 272.076 130.7 270.166 128.522C267.756 125.799 264.391 124.074 260.89 123.075C257.388 122.077 255.023 121.85 251.385 121.578C253.068 120.352 254.523 118.991 257.206 119.127C254.296 118.128 252.932 118.9 250.249 119.898C250.203 119.172 255.023 115.995 256.388 115.405C247.156 115.45 228.557 122.395 213.505 138.642C193.997 161.562 209.14 185.616 217.053 191.697C223.601 196.69 230.74 201.546 238.925 202C247.383 202.499 261.889 198.506 264.618 198.278C267.483 198.052 270.257 199.458 272.349 201.41C273.713 202.681 274.714 203.18 275.714 204.723C269.029 212.121 261.254 224.647 259.071 227.597C257.798 229.322 257.297 230.184 256.115 231.999C254.751 234.132 253.295 236.175 252.113 238.399C248.338 245.479 241.018 266.9 239.062 272.483C238.789 273.163 240.972 277.066 241.836 277.929C239.153 281.651 236.424 285.963 234.878 289.049C228.194 302.574 224.328 311.878 221.191 326.492C221.192 326.516 221.343 330.188 212.778 336.385C208.73 339.88 211.05 338.292 205.638 342.649C201.955 345.599 201.773 348.458 201.955 350.909C202 351.499 199.318 355.084 199.863 357.081C200.636 359.985 201.818 360.803 202.682 361.711C203.091 362.21 201.818 363.389 201.409 364.342C200.682 366.112 202.591 368.155 204.183 367.52C207.957 366.067 212.46 363.163 215.779 361.665C217.826 359.895 222.009 361.256 224.783 359.486C229.785 354.766 228.967 355.039 231.332 342.921C231.343 342.896 232.742 339.921 233.059 338.882C238.061 327.899 248.612 316.87 254.66 306.749C271.394 278.701 279.261 255.555 279.352 257.778C284.536 266.265 289.902 290.41 290.084 294.903C290.13 296.174 289.447 313.828 288.219 319.456C286.537 326.945 284.582 332.437 282.945 338.972C278.352 355.492 275.259 371.105 269.621 387.263C269.512 387.505 246.696 407.234 230.831 414.629C230.058 415.038 231.332 422.027 231.877 424.75C227.739 427.973 223.237 429.062 218.553 429.516C212.323 430.968 205.274 428.835 205.274 428.835C200.454 427.973 197.225 428.835 194.133 432.647C191.632 435.734 191.451 441.452 193.451 444.901C195.68 448.668 195.497 452.526 195.907 455.703C197.043 464.916 195.861 474.265 197.771 480.165C199.545 484.613 201.273 486.656 202.137 487.064C202.409 487.291 202.774 487.518 203.092 487.7C203.638 488.698 203.365 489.515 204.82 491.875C207.412 495.188 212.596 492.375 211.232 490.695C210.959 490.332 210.367 489.061 210.186 488.653C210.277 487.972 210.322 485.839 210.413 484.795V482.571H210.458C210.05 477.714 222.237 454.115 227.148 448.078C230.604 445.764 234.151 443.585 237.743 441.497C239.426 446.716 242.2 452.889 246.292 458.29C251.295 453.66 271.031 432.965 276.669 427.519C285.81 418.623 303.09 404.599 312.458 395.477C312.503 417.761 308.456 442.677 303.817 464.462C310.502 465.461 314.504 469.545 319.87 469.137C320.188 473.403 320.188 487.745 319.051 491.966C318.187 493.645 317.459 495.37 317.005 497.14C314.959 497.684 316.095 499.182 314.049 499.863C309.366 501.361 304.227 503.812 302.908 508.532C301.817 512.389 303.181 517.154 306.409 519.469C309.956 522.011 312.23 523.055 314.231 525.551C319.597 532.313 323.917 545.203 328.055 549.832C331.511 553.19 333.921 554.37 334.876 554.37C336.013 554.643 337.378 554.643 338.151 554.598C340.242 554.461 340.833 553.735 341.834 553.735C343.198 553.689 343.516 554.507 346.609 554.552C350.838 554.189 351.292 548.335 349.109 548.561C348.655 548.607 347.291 548.38 346.836 548.334C346.29 547.88 345.972 547.245 345.154 546.61C344.108 545.929 341.243 544.023 341.197 543.932C340.515 543.024 340.515 541.799 340.606 540.664C341.288 533.13 340.97 516.02 338.651 479.485C344.653 479.303 350.611 477.669 355.749 474.629C349.064 448.351 347.7 424.296 351.293 397.428C351.838 393.207 355.658 379.319 355.294 336.295C355.294 335.478 355.294 317.006 353.93 305.75C355.34 305.296 357.607 304.661 358.971 303.935C356.833 236.129 342.782 197.461 342.782 197.461C337.097 182.938 334.74 176.584 346.108 166.055C348.7 163.649 343.925 149.625 343.152 148.854C345.108 138.461 344.426 133.286 345.017 129.156C345.881 122.939 350.974 110.14 351.293 104.331C351.929 92.8941 357.477 61.5778 357.568 60.2616C357.577 60.2159 358.449 55.7529 361.751 52.7277C365.571 48.87 366.481 46.8277 368.209 44.2862L367.981 44.1501C371.119 39.6116 371.119 37.8414 369.391 36.5706C367.982 35.5723 365.98 37.9321 365.162 38.5221C363.934 39.4296 361.707 39.9292 361.57 39.7027C359.614 38.2958 359.296 32.0777 359.296 31.6238C359.432 30.2169 359.296 27.2214 361.206 25.2698C362.479 23.9992 363.752 22.9099 364.434 22.4106C368.527 19.506 367.117 15.8751 366.162 15.6028Z" fill="#D1FF00"/>
</svg>
